<?xml version="1.0" encoding="utf-8"?>
<!-- Svg Vector Icons : http://www.onlinewebfonts.com/icon -->
<!DOCTYPE svg PUBLIC "-//W3C//DTD SVG 1.1//EN" "http://www.w3.org/Graphics/SVG/1.1/DTD/svg11.dtd">
<svg version="1.1" xmlns="http://www.w3.org/2000/svg" xmlns:xlink="http://www.w3.org/1999/xlink" x="0px" y="0px" viewBox="0 0 1000 1000" enable-background="new 0 0 1000 1000" xml:space="preserve">
<metadata> Svg Vector Icons : http://www.onlinewebfonts.com/icon </metadata>
<g><g transform="translate(0.000000,511.000000) scale(0.100000,-0.100000)"><path d="M4670.5,2907.7c-149.5-31.6-351.6-136.8-465.3-244.2c-246.3-229.5-381.1-766.3-231.6-924.2c63.2-65.3,132.6-80,218.9-44.2c92.6,37.9,109.5,73.7,124.2,259c21.1,263.2,130.5,440,326.3,524.2c42.1,18.9,155.8,37.9,248.4,44.2c153.7,10.5,183.1,6.3,288.4-42.1c246.3-111.6,421.1-349.5,421.1-568.4c0-179-63.2-288.4-307.4-528.4c-157.9-157.9-235.8-252.6-292.6-360c-88.4-170.5-153.7-372.6-174.7-541.1c-14.7-117.9-16.8-120-103.2-149.5c-46.3-16.9-526.3-185.3-1065.3-372.6C2297.9-513.3,792.6-1043.9,607.4-1115.5c-200-77.9-301.1-147.4-381.1-267.4C137.9-1517.6,100-1660.7,100-1860.7c0-362.1,170.5-631.6,499-785.3l122.1-56.9h4284.2h4284.2l141.1,67.4c178.9,84.2,317.9,223.2,402.1,402.1c63.2,132.6,67.4,155.8,67.4,383.2c0,216.8-6.3,254.7-54.7,360c-63.2,134.7-172.6,252.6-288.4,311.6C9460-1130.2,8590.5-820.7,6710.5-166c-804.2,280-1471.6,517.9-1482.1,526.3c-27.4,25.3,40,296.8,107.4,433.7c37.9,80,130.5,191.6,280,341c248.4,252.6,338.9,402.1,378.9,637.9c69.5,402.1-191.6,852.6-619,1063.2c-160,77.9-178.9,82.1-389.5,86.3C4864.2,2924.5,4721.1,2918.2,4670.5,2907.7z M6388.4-479.7c2738.9-953.7,2960-1033.7,3029.5-1099c69.5-65.3,98.9-170.5,88.4-324.2c-10.5-166.3-80-275.8-225.3-355.8l-103.1-54.7l-4195.8,4.2l-4197.9,6.3L700-2246c-130.5,90.5-187.4,187.4-195.8,343.1c-10.5,162.1,21.1,267.4,101,332.6c31.6,27.4,223.2,109.5,423.2,181C1388.4-1260.7,4973.7-3.9,4998.9,0.3C5003.2,2.4,5628.4-214.4,6388.4-479.7z"/></g></g>
</svg>