<?xml version="1.0" encoding="utf-8"?>
<!-- Svg Vector Icons : http://www.onlinewebfonts.com/icon -->
<!DOCTYPE svg PUBLIC "-//W3C//DTD SVG 1.1//EN" "http://www.w3.org/Graphics/SVG/1.1/DTD/svg11.dtd">
<svg version="1.1" xmlns="http://www.w3.org/2000/svg" xmlns:xlink="http://www.w3.org/1999/xlink" x="0px" y="0px" viewBox="0 0 1000 1000" enable-background="new 0 0 1000 1000" xml:space="preserve">
<metadata> Svg Vector Icons : http://www.onlinewebfonts.com/icon </metadata>
<g><g><g><path d="M890.8,191c0-80.7-65.7-146.3-146.3-146.3H255.6c-80.7,0-146.3,65.6-146.3,146.3v244.4H10v520h980v-520h-99.2L890.8,191L890.8,191z M538.7,851.8h-77.5v-25.7V717.8c-4.5-2.2-8.7-4.7-12.7-7.6c-22.9-16.2-37.9-42.7-37.9-72.9c0-49.4,40-89.4,89.4-89.4c49.4,0,89.4,40,89.4,89.4c0,30.2-15,56.7-37.9,72.9c-4,2.8-8.3,5.4-12.7,7.6v108.4V851.8L538.7,851.8z M225.2,435.4V191c0-16.7,13.6-30.4,30.4-30.4h488.9c16.7,0,30.4,13.6,30.4,30.4v244.4L225.2,435.4L225.2,435.4z"/></g></g><g></g><g></g><g></g><g></g><g></g><g></g><g></g><g></g><g></g><g></g><g></g><g></g><g></g><g></g><g></g></g>
</svg>