<?xml version="1.0" encoding="utf-8"?>
<!-- Svg Vector Icons : http://www.onlinewebfonts.com/icon -->
<!DOCTYPE svg PUBLIC "-//W3C//DTD SVG 1.1//EN" "http://www.w3.org/Graphics/SVG/1.1/DTD/svg11.dtd">
<svg version="1.1" xmlns="http://www.w3.org/2000/svg" xmlns:xlink="http://www.w3.org/1999/xlink" x="0px" y="0px" viewBox="0 0 1000 1000" enable-background="new 0 0 1000 1000" xml:space="preserve">
<metadata> Svg Vector Icons : http://www.onlinewebfonts.com/icon </metadata>
<g><path d="M559.1,763.4H345v-17.2c0-44.8-36.5-81.4-81.4-81.4c-44.9,0-81.4,36.6-81.4,81.4v17.2H66.5C35.3,763.4,10,738,10,706.9V194.6c0-31.1,25.3-56.5,56.5-56.5h492.6c31.1,0,56.5,25.4,56.5,56.5v512.3C615.6,738,590.3,763.4,559.1,763.4L559.1,763.4z M377.9,729.1h181.2c12.3,0,22.3-10,22.3-22.2V194.6c0-12.3-10-22.3-22.3-22.3H66.5c-12.2,0-22.3,10-22.3,22.3v512.3c0,12.2,10,22.2,22.3,22.2h82.7c8.2-55.6,56.5-98.5,114.4-98.5C321.5,630.7,369.6,673.5,377.9,729.1L377.9,729.1z M933.5,763.4h-76.2v-17.2c0-44.8-36.6-81.4-81.4-81.4c-44.9,0-81.4,36.6-81.4,81.4v17.2h-56.6c-31.1,0-56.5-25.4-56.5-56.5V332.6c0-31.3,25.4-56.5,56.5-56.5h167.5c8.6,0,22.3,3.6,51.7,31.4c17.2,16.2,37.7,38.7,57.6,63.4c19.9,24.6,38.1,49.8,51.1,71c21.6,35,24.1,49.9,24.1,58.3v206.9C990,738,964.6,763.4,933.5,763.4L933.5,763.4z M890.2,729.1h43.3c12.3,0,22.3-10,22.3-22.2V500c0-0.4-0.2-9.5-18-38.6c-11.7-19.3-28.3-42.5-46.7-65.4c-18.3-22.9-37.2-44.1-53.4-59.9c-22.3-21.7-31.3-25.4-33-25.9H637.9c-12.3,0-22.3,10.1-22.3,22.4v374.4c0,12.2,10,22.2,22.3,22.2h23.6c8.3-55.6,56.4-98.5,114.4-98.5C833.7,630.7,881.9,673.5,890.2,729.1L890.2,729.1z M990,546.7H756.2c-31.3,0-56.5-25.3-56.5-56.5v-78.8c0-31.2,25.3-56.5,56.5-56.5h145.3l5.1,6c14,16.8,83.3,101.9,83.3,139.1V546.7L990,546.7z M756.2,389.1c-12.4,0-22.4,10-22.4,22.3v78.8c0,12.2,10.1,22.3,22.4,22.3h199.6V500c0-0.5-0.2-10.7-21.7-44.6c-12.9-20.2-29.9-43.6-48.6-66.4L756.2,389.1L756.2,389.1z M775.9,861.8c-63.8,0-115.7-51.8-115.7-115.6c0-63.7,51.9-115.6,115.7-115.6c63.8,0,115.6,51.9,115.6,115.6C891.5,810.1,839.6,861.8,775.9,861.8L775.9,861.8z M775.9,664.9c-44.9,0-81.4,36.6-81.4,81.4c0,44.9,36.5,81.5,81.4,81.5c44.8,0,81.4-36.6,81.4-81.5C857.3,701.4,820.7,664.9,775.9,664.9L775.9,664.9z M263.5,861.8c-63.8,0-115.6-51.8-115.6-115.6c0-63.7,51.8-115.6,115.6-115.6c63.8,0,115.6,51.9,115.6,115.6C379.1,810.1,327.3,861.8,263.5,861.8L263.5,861.8z M263.5,664.9c-44.9,0-81.4,36.6-81.4,81.4c0,44.9,36.5,81.5,81.4,81.5c44.9,0,81.4-36.6,81.4-81.5C345,701.4,308.5,664.9,263.5,664.9L263.5,664.9z"/></g>
</svg>