<?xml version="1.0" encoding="utf-8"?>
<!-- Svg Vector Icons : http://www.onlinewebfonts.com/icon -->
<!DOCTYPE svg PUBLIC "-//W3C//DTD SVG 1.1//EN" "http://www.w3.org/Graphics/SVG/1.1/DTD/svg11.dtd">
<svg version="1.1" xmlns="http://www.w3.org/2000/svg" xmlns:xlink="http://www.w3.org/1999/xlink" x="0px" y="0px" viewBox="0 0 1000 1000" enable-background="new 0 0 1000 1000" xml:space="preserve">
<metadata> Svg Vector Icons : http://www.onlinewebfonts.com/icon </metadata>
<g><path d="M399.5,87c-11.6,15.6-21.8,29.9-30.6,42.9c-7.5,11.6-14.8,22.3-21.9,32.1c-7.1,9.9-11.4,15.8-12.8,17.9c-6.8,11.6-7.5,20.7-2,27.5c2.7,2.7,5.6,6,8.7,9.7c3.1,3.7,7,7.3,11.7,10.7c4.1,3.4,7.1,7.7,9.2,12.8s2,10,0,14.8c-2,4.8-4.4,10-7.1,15.8c-2.7,5.8-5.4,10.7-8.2,14.8c-5.4,11.6-3.7,23.8,5.1,36.7c4.8,6.8,13.1,19.6,25,38.3c11.9,18.7,24,37.6,36.2,56.6c5.4,9.5,13.1,21.8,23,36.7c9.9,15,19.6,29.2,29.1,42.9c10.9,16.3,22.4,33.3,34.7,51c10.2-15,20.1-29.6,29.6-43.9c8.2-12.2,16.5-24.7,25-37.2c8.5-12.6,15.5-23,20.9-31.1c4.8-8.2,10.9-18.4,18.4-30.6l24.5-34.7c7.5-12.2,14.3-23.1,20.4-32.6c6.1-9.5,10.2-16,12.2-19.4c7.5-12.9,8.8-23.8,4.1-32.7c-2-3.4-4.1-7-6.1-10.7c-2-3.7-4.4-8.3-7.1-13.8c-4.8-10.9-5.4-19-2-24.5c2.7-2.7,6.5-6.6,11.2-11.7c4.8-5.1,9.9-11.4,15.3-18.9c5.4-6.8,6.3-13.3,2.6-19.4c-3.7-6.1-8.7-13.9-14.8-23.5c-3.4-4.1-8-10.4-13.8-18.9c-5.8-8.5-11.7-17.2-17.9-26c-7.5-10.2-15-20.7-22.4-31.6c3.4,0,6.5,0.3,9.2,1c4.8,1.4,10.9,2.4,18.4,3.1c2.7,1.4,7,3.7,12.8,7.1c5.8,3.4,11.7,7.1,17.9,11.2c6.1,4.1,12.4,8.2,18.9,12.2s12.4,7.1,17.9,9.2c9.5,4.1,18.9,7.1,28.1,9.2c9.2,2,20.6,4.8,34.2,8.2c13.6,3.4,25.5,9.9,35.7,19.4c10.2,9.5,17.3,24.5,21.4,44.9c2,10.2,5.1,23.8,9.2,40.8c4.1,17,9,35.7,14.8,56.1c5.8,20.4,11.7,41.8,17.9,64.3s12.2,44.6,18.4,66.3c6.1,21.8,14.5,45.7,25,71.9c10.5,26.2,21.1,51,31.6,74.5c10.5,23.5,20.2,44,29.1,61.7c8.8,17.7,14.6,28.9,17.3,33.7c5.4,9.5,9.4,18.2,11.7,26c2.4,7.8,1.5,14.1-2.6,18.9c-3.4,4.8-9.7,9.9-18.9,15.3c-9.2,5.4-17.5,9.9-25,13.3c-7.5,3.4-16.2,4.6-26,3.6c-9.9-1-18.2-7.3-25-18.9c-3.4-5.4-8.7-14.6-15.8-27.5c-7.1-12.9-15.1-27.9-24-44.9c-8.8-17-18.2-35-28.1-54.1s-18.9-37.8-27-56.1c-8.8-17.7-16.8-38.1-24-61.2c-7.1-23.1-13.4-44.6-18.9-64.3c-6.8-23.1-12.6-46.6-17.3-70.4c-2,18.4-4.1,37.1-6.1,56.1c-1.4,17-2.9,35.7-4.6,56.1c-1.7,20.4-3.2,40.5-4.6,60.2c-1.4,20.4-1.2,45.6,0.5,75.5c1.7,29.9,4.1,59.5,7.1,88.8s6.3,55.8,9.7,79.6c3.4,23.8,5.8,39.8,7.1,48c3.4,15.6,5.1,28.1,5.1,37.2c0,9.2-8.5,17.2-25.5,24c-8.2,3.4-18.2,6.6-30.1,9.7c-11.9,3.1-24.5,5.6-37.8,7.7c-13.3,2-26.2,3.9-38.8,5.6c-12.6,1.7-23.3,2.9-32.1,3.6c-18.4,1.4-29.9-1.4-34.7-8.2c-4.8-6.8-7.8-13.9-9.2-21.4c-1.4-4.1-3.1-12.8-5.1-26c-2-13.3-4.4-28.1-7.1-44.4c-2.7-16.3-5.3-32.3-7.7-48c-2.4-15.6-4.3-27.5-5.6-35.7c-1.4-8.2-3.1-17.9-5.1-29.1s-3.7-22.3-5.1-33.2c-2-12.2-4.1-25.2-6.1-38.8c-2,10.9-4.1,22.1-6.1,33.7c-2,9.5-4.1,20.1-6.1,31.6s-3.7,23.1-5.1,34.7c-1.4,10.9-3.2,24-5.6,39.3c-2.4,15.3-4.9,30.6-7.7,45.9c-2.7,15.3-5.1,29.4-7.1,42.3c-2,12.9-3.7,22.4-5.1,28.6c-1.4,6.1-2.6,11.2-3.6,15.3c-1,4.1-2.9,7.1-5.6,9.2c-2.7,2-6.6,3.4-11.7,4.1s-12.4,0.7-21.9,0s-20.6-1.9-33.2-3.6c-12.6-1.7-25.5-3.9-38.8-6.6s-26-5.6-38.3-8.7c-12.2-3.1-22.4-6-30.6-8.7c-8.2-2.7-14.1-6.3-17.9-10.7c-3.7-4.4-6.1-9.4-7.1-14.8s-0.9-11.2,0.5-17.3c1.4-6.1,3.1-12.2,5.1-18.4s4.6-20.4,7.7-42.9c3.1-22.4,6.1-47.6,9.2-75.5c3.1-27.9,5.4-56.1,7.1-84.7c1.7-28.6,2.2-52.4,1.5-71.4c-1.4-19-2.9-39.8-4.6-62.2c-1.7-22.4-3.2-43.5-4.6-63.3c-2-22.4-4.1-45.6-6.1-69.4c-6.1,23.8-12.6,46.9-19.4,69.4c-5.4,19.7-11.4,40.6-17.9,62.7c-6.5,22.1-12.4,41.7-17.9,58.7s-13.6,36.4-24.5,58.2s-21.8,42.7-32.6,62.7c-10.9,20.1-20.6,37.6-29.1,52.5c-8.5,15-13.8,24.1-15.8,27.5c-4.1,6.1-10.5,10.4-19.4,12.8c-8.8,2.4-17.3,1.9-25.5-1.5c-8.8-3.4-16.7-7.3-23.5-11.7c-6.8-4.4-13.6-9.4-20.4-14.8c-6.8-5.4-9.7-11.7-8.7-18.9c1-7.1,3.9-15.5,8.7-25c2.7-4.8,8.8-17.5,18.4-38.3c9.5-20.7,19.9-43.4,31.1-67.8C79.6,557.4,90,533.8,99.5,511c9.5-22.8,16-38.3,19.4-46.4c2.7-8.2,6.8-22.3,12.2-42.3c5.4-20.1,11.2-41.7,17.3-64.8c6.1-23.1,11.9-45.4,17.3-66.8c5.4-21.4,9.5-37.6,12.2-48.5c5.4-21.8,10.4-38.6,14.8-50.5c4.4-11.9,11.1-21.9,19.9-30.1c9.5-7.5,22.6-12.9,39.3-16.3c16.7-3.4,33.2-7.8,49.5-13.3c16.3-5.4,28.6-11.9,36.7-19.4c8.2-7.5,17-13.6,26.5-18.4c12.9-5.4,21.8-8.2,26.5-8.2C394,86,396.7,86.3,399.5,87z M403.5,119.7c4.1,21.1,8.5,41.8,13.3,62.2c3.4,17.7,7.5,36.4,12.2,56.1c4.8,19.7,9.2,37.8,13.3,54.1c4.1,16.3,9.2,35.7,15.3,58.2c6.1,22.4,12.2,43.9,18.4,64.3c7.5,23.8,15,48,22.4,72.4c8.8-30.6,17-59.5,24.5-86.7c6.8-23.1,13.3-46.1,19.4-68.9c6.1-22.8,10.5-39.3,13.3-49.5c2.7-9.5,6-23.3,9.7-41.3c3.7-18,7.7-35.9,11.7-53.6c4.1-20.4,8.8-41.8,14.3-64.3c6.1,8.2,11.9,16,17.3,23.5l14.3,20.4c4.8,6.8,8.5,11.9,11.2,15.3c5.4,7.5,7.3,12.6,5.6,15.3c-1.7,2.7-4.3,5.8-7.7,9.2l-16.3,16.3c-2.7,3.4-5.3,7.3-7.7,11.7c-2.4,4.4-2.2,9.4,0.5,14.8l7.1,13.3c1.4,3.4,3.7,9.2,7.1,17.3c4.1,8.8,5.4,15.8,4.1,20.9c-1.4,5.1-3.4,10-6.1,14.8c-2,2.7-4.8,7-8.2,12.8c-3.4,5.8-7.3,12.1-11.7,18.9c-4.4,6.8-9,13.8-13.8,20.9c-4.8,7.1-8.8,13.4-12.2,18.9s-9.4,14.8-17.9,28.1c-8.5,13.3-17.2,26.7-26,40.3c-10.2,16.3-21.1,33.3-32.7,51c-10.2-15.6-19.4-30.6-27.5-44.9c-7.5-11.6-15-23.5-22.4-35.7c-7.5-12.2-13.3-21.4-17.3-27.5c-4.1-6.1-8.5-13.1-13.3-20.9c-4.8-7.8-9.7-15.6-14.8-23.5c-5.1-7.8-9.9-15.3-14.3-22.4c-4.4-7.1-8-12.8-10.7-16.8c-6.8-11.6-8.8-21.4-6.1-29.6c1.4-3.4,3.6-8.3,6.6-14.8c3.1-6.5,6.3-13.1,9.7-19.9c3.4-6.8,3.9-12.6,1.5-17.3c-2.4-4.8-4.6-8.2-6.6-10.2c-2-2.7-4.1-5.1-6.1-7.1s-5.4-5.8-10.2-11.2c-4.8-4.8-7-8.7-6.6-11.7c0.3-3.1,2.2-8,5.6-14.8c1.4-2,3.9-6.1,7.7-12.2c3.7-6.1,8-12.6,12.8-19.4C391.6,138.7,397.4,129.9,403.5,119.7z"/></g>
</svg>